<svg width="193" height="49" fill="none" xmlns="http://www.w3.org/2000/svg"><path fill-rule="evenodd" clip-rule="evenodd" d="M35 45.342c-.255-3.31-.127-6.11-.127-9.482 0-.827 1.973-1.654 3.563-2.545 1.846-1.082 11.2-6.682 11.837-6.682.572 0 11.454 6.427 13.745 7.7.764.445 1.718.7 1.718 1.527 0 3.055.128 6.49-.127 9.482-1.209-.827-14.827-8.655-15.336-8.655-.764 0-13.619 7.7-15.273 8.655zm-30.8-16.1V19.187c2.29 1.018 14.255 8.655 15.336 8.655 1.146.064 29.655-17.31 30.864-17.5.51-.064 13.936 7.763 15.464 8.654l.063 10.055c-2.418-1.018-14.509-8.591-15.4-8.655-.572 0-13.745 7.7-15.463 8.719-1.591.954-14.891 8.718-15.337 8.781-.89.128-13.363-7.636-15.527-8.654zm-.064-16.673L4.2 3.024c1.655.954 14.636 8.59 15.146 8.654C20.809 11.87 32.136 4.17 35 3.151v9.927c-2.036 1.4-14.954 8.782-15.654 8.718l-13.555-7.7c-.827-.509-1.655-.636-1.655-1.527zM0 48.27c5.473.382 23.673.064 30.418.064l39.646-.064V.16C66.818-.158 10.373.096 0 .096V48.27z" fill="#FEFEFE"/><path d="M84.445 10.66V2.833h-2.673c0 1.59-.19 3.182-.572 4.645-.382 1.528-.891 2.8-1.528 3.818h4.137c.254 0 .382-.063.509-.19.064-.064.127-.255.127-.446zm-4.518 1.146c-.19.063-.382.127-.573.318-.127.19-.318.381-.445.636-.128.191-.191.446-.318.7-.064.255-.191.445-.191.573h-.51v-2.737h.891c.573-.827 1.082-1.972 1.528-3.372.445-1.4.636-2.673.636-3.755 0-.318 0-.573-.063-.763a.574.574 0 00-.382-.382c-.064-.064-.255-.128-.51-.191-.254 0-.445-.064-.508-.064v-.445h7.636v.445c-.127 0-.255 0-.446.064-.19.063-.318.063-.381.127-.191 0-.255.127-.319.255-.063.127-.063.254-.063.381v7c0 .255.063.446.127.51.127.127.382.19.636.19h.573v2.737h-.509a2.953 2.953 0 01-.19-.573 6.205 6.205 0 00-.319-.7 2.286 2.286 0 00-.446-.636c-.127-.191-.318-.255-.509-.319h-5.345zm16.545-2.8l-.127 2.8h-7.954v-.446c.127 0 .318-.064.572-.064.191 0 .319-.063.446-.063.127-.128.19-.191.254-.318.064-.064.128-.191.128-.382V3.66c0-.127-.064-.254-.128-.382 0-.127-.127-.19-.254-.254-.128-.064-.318-.128-.51-.191-.19 0-.381-.064-.508-.064v-.445h7.381v2.29h-.509c-.063-.381-.254-.7-.572-1.081-.319-.382-.573-.637-.828-.637-.19 0-.318-.063-.509-.063h-2.163v3.754h1.081c.319 0 .573 0 .764-.063.127-.064.255-.191.382-.318.127-.128.19-.319.254-.51.064-.254.128-.445.128-.636h.509v3.755h-.51c0-.255-.063-.446-.127-.7-.063-.255-.127-.446-.254-.51-.127-.19-.255-.318-.446-.381-.19 0-.445-.064-.7-.064h-1.081v2.864c0 .318 0 .509.063.7.064.127.127.254.255.381a.92.92 0 00.445.128c.191.063.51.063.891.063h.573c.254 0 .445 0 .573-.063.19 0 .381 0 .572-.064.191-.064.319-.127.382-.19.191-.255.382-.573.637-1.019.254-.382.381-.7.445-.954h.445zm10.819 2.8h-4.009v-.446c.127 0 .254 0 .509-.064.191 0 .318 0 .381-.063.128-.064.255-.128.319-.255.063-.127.063-.254.063-.445V2.896h-4.391v7.573c0 .191.064.318.128.382 0 .127.127.254.318.318.063.064.191.064.382.127.191 0 .381.064.445.064v.446h-3.945v-.446c.127 0 .254 0 .445-.064.191 0 .382 0 .445-.063a.497.497 0 00.255-.255c.064-.127.127-.254.127-.445V3.66c0-.127-.063-.254-.063-.382-.064-.127-.191-.19-.319-.254a3.1 3.1 0 00-.445-.191c-.19 0-.318-.064-.445-.064v-.445h9.8v.445c-.128 0-.319 0-.509.064-.191.063-.319.063-.382.127-.191 0-.255.127-.318.255-.064.127-.064.254-.064.381v6.873c0 .191 0 .318.064.382.063.127.127.254.318.318.063.064.191.064.382.127.19 0 .381.064.509.064v.446zm10.181 0h-3.945v-.446c.382 0 .636-.064.891-.127.191-.064.318-.191.318-.255v-.127c0-.064 0-.127-.064-.19l-.763-2.1h-3.373c-.127.254-.191.572-.254.763a3.087 3.087 0 00-.255.7c-.064.19-.064.318-.127.445v.318c0 .128.127.318.382.382.318.127.636.191.954.191v.446h-3.564v-.446c.128 0 .255-.064.446-.064.191-.063.318-.127.445-.19.128-.128.319-.255.382-.382.127-.128.191-.319.318-.573.446-1.145 1.019-2.545 1.591-4.01a218.45 218.45 0 001.528-4.008h.509l3.181 8.273c.064.127.191.318.255.381a.653.653 0 00.382.318c.063.064.191.128.382.191.127 0 .318.064.381.064v.446zm-3.818-3.882l-1.463-3.691-1.4 3.69h2.863zm11.455-3.246c0 .446-.064.891-.255 1.273-.191.382-.445.7-.827.955-.318.254-.7.445-1.082.572-.445.128-.891.191-1.336.191h-1.082v2.864c0 .127.064.318.127.382 0 .127.128.254.318.318.064 0 .191.063.382.063.255.064.446.064.573.064v.446h-4.073v-.446c.128 0 .255-.064.446-.064s.382-.063.445-.063c.127-.064.255-.128.255-.255.063-.127.127-.254.127-.445V3.66c0-.19 0-.318-.064-.445-.063-.128-.191-.191-.318-.255-.191-.064-.318-.127-.509-.127-.191-.064-.318-.064-.445-.064v-.445h4.327c.891 0 1.654.19 2.164.636.572.382.827.955.827 1.718zm-2.037 1.591c.191-.19.255-.445.319-.636.063-.255.063-.446.063-.637 0-.254 0-.509-.063-.763-.064-.318-.191-.51-.319-.7-.19-.255-.381-.382-.636-.51-.254-.127-.573-.19-.954-.19h-.955v4.2h.7c.509 0 .891-.064 1.209-.191.255-.191.509-.318.636-.573zm10.946-1.4h-.509c0-.127-.127-.318-.191-.573-.127-.19-.255-.445-.382-.636-.127-.19-.254-.382-.445-.509a.554.554 0 00-.446-.255c-.127-.063-.318-.063-.509-.063h-1.018v7.636c0 .127.064.255.127.382.064.127.191.19.318.254.064.064.255.128.509.191.255 0 .446.064.573.064v.446h-4.454v-.446c.127 0 .318-.064.572-.064.255 0 .446-.063.509-.127.128 0 .255-.127.319-.254.063-.064.127-.255.127-.382v-7.7h-.891c-.255 0-.445 0-.636.063-.128 0-.255.064-.446.255-.127.127-.318.318-.445.51a2.91 2.91 0 00-.318.635c-.128.255-.191.446-.255.573h-.445V2.324h8.336v2.545zm9.609 6.937h-3.945v-.446c.381 0 .636-.064.89-.127.191-.064.319-.191.319-.255v-.127c0-.064 0-.127-.064-.19l-.764-2.1h-3.372c-.128.254-.191.572-.319.763-.063.254-.127.445-.19.7-.064.19-.064.318-.128.445v.318c0 .128.128.318.382.382.318.127.636.191.955.191v.446h-3.564v-.446c.127 0 .255-.064.445-.064.128-.063.319-.127.382-.19.191-.128.318-.255.446-.382.127-.128.191-.319.318-.573.445-1.145.954-2.545 1.527-4.01a73.134 73.134 0 001.591-4.008h.509l3.182 8.273c.064.127.127.318.255.381.063.128.19.255.318.318.127.064.254.128.445.191.127 0 .318.064.382.064v.446zm-3.818-3.882l-1.464-3.691-1.4 3.69h2.864zm15.654 3.881H151.2v-.445c.191 0 .382 0 .636-.064.255 0 .382-.063.509-.127s.191-.19.255-.254c.063-.128.127-.255.127-.446V3.533h-.127l-3.246 8.145h-.318l-3.118-8.272h-.064v5.663c0 .573.064.955.128 1.273.063.254.19.509.318.636.063.064.318.127.572.255.319.063.51.127.637.127v.446h-3.882v-.446c.255 0 .445-.064.636-.127.255 0 .446-.128.573-.191.127-.127.255-.318.318-.573 0-.254.064-.7.064-1.336V4.296c0-.318-.064-.509-.127-.7a1.033 1.033 0 00-.255-.445c-.127-.127-.318-.19-.509-.255a2.258 2.258 0 00-.636-.127v-.445h3.245l2.736 7.127 2.355-5.982c.064-.254.127-.445.191-.7.064-.254.127-.382.127-.445h3.118v.445c-.127 0-.318 0-.509.064-.191.063-.318.063-.445.127-.127 0-.255.127-.255.255-.063.127-.127.254-.127.381v6.873c0 .191.064.318.127.382 0 .127.128.254.255.318s.254.064.445.127c.191 0 .382.064.509.064v.446zm9.291-2.8l-.191 2.8h-7.891v-.445c.128 0 .319-.064.51-.064.254 0 .381-.063.445-.063.191-.128.255-.191.318-.318.064-.064.064-.191.064-.382V3.66c0-.127 0-.254-.064-.382-.063-.127-.127-.19-.318-.254a3.127 3.127 0 00-.445-.191c-.255 0-.382-.064-.51-.064v-.445h7.382v2.29h-.509c-.063-.381-.254-.7-.573-1.081-.318-.382-.572-.637-.827-.637-.191 0-.318-.063-.509-.063H159.472v3.754h1.082c.318 0 .573 0 .764-.063.127-.064.254-.191.382-.318.127-.128.191-.319.254-.51.064-.254.128-.445.128-.636h.509v3.755h-.509c0-.255-.064-.446-.128-.7a1.22 1.22 0 00-.254-.51 1.194 1.194 0 00-.446-.381c-.191 0-.445-.064-.7-.064h-1.082v2.864c0 .318 0 .509.064.7 0 .127.127.254.255.381.063.064.254.128.445.128.191.063.509.063.891.063h.573c.191 0 .445 0 .572-.063.191 0 .382 0 .573-.064l.382-.19c.191-.255.382-.573.636-1.019.191-.382.382-.7.446-.954h.445zm10.882 2.8h-3.945v-.445c.063 0 .254 0 .445-.064.191 0 .318 0 .382-.063.191-.064.254-.128.318-.255a.916.916 0 00.127-.445V7.16h-4.518v3.31c0 .19.064.317.064.381a.765.765 0 00.318.318c.127.064.255.064.445.127.191 0 .319.064.446.064v.446h-3.946v-.446c.128 0 .255 0 .446-.064.191 0 .318 0 .445-.063a.496.496 0 00.255-.255.916.916 0 00.127-.445V3.66c0-.127-.063-.254-.127-.382a.496.496 0 00-.255-.254c-.127-.064-.254-.128-.445-.191-.191 0-.318-.064-.446-.064v-.445h3.946v.445c-.127 0-.255 0-.446.064-.19.063-.318.063-.445.127-.127 0-.255.127-.318.255 0 .127-.064.254-.064.381v2.991h4.518V3.66c0-.127-.063-.254-.127-.382-.064-.127-.127-.19-.318-.254-.064-.064-.255-.128-.382-.191-.191 0-.318-.064-.445-.064v-.445h3.945v.445c-.127 0-.254 0-.445.064-.191.063-.319.063-.446.127-.127 0-.254.127-.318.255-.064.127-.064.254-.064.381v6.873c0 .191 0 .318.064.382a.77.77 0 00.318.318c.064.064.255.064.446.127.191 0 .318.064.445.064v.446zm9.1-6.936h-.509c0-.127-.064-.318-.191-.573-.127-.19-.254-.445-.382-.636-.127-.19-.254-.382-.445-.509-.127-.19-.255-.255-.446-.255-.127-.063-.318-.063-.509-.063h-.954v7.636c0 .127 0 .255.063.382.064.127.191.19.319.254.127.064.254.128.509.191.254 0 .445.064.636.064v.446h-4.518v-.446c.127 0 .318-.064.573-.064.254 0 .445-.063.509-.127.191 0 .254-.127.381-.254.064-.064.064-.255.064-.382v-7.7h-.891c-.191 0-.382 0-.573.063-.19 0-.318.064-.509.255-.127.127-.254.318-.445.51-.127.19-.255.445-.318.635-.128.255-.191.446-.255.573h-.445V2.324h8.336v2.545zM86.227 19.06c.445.446.764.955 1.018 1.591.191.636.318 1.336.318 2.036 0 .764-.127 1.464-.318 2.1-.254.637-.573 1.146-1.018 1.591-.446.446-.89.764-1.464.955a4.27 4.27 0 01-1.782.382 4.564 4.564 0 01-1.845-.382c-.509-.255-1.018-.573-1.4-1.018a3.683 3.683 0 01-.955-1.591 5.277 5.277 0 01-.381-2.037c0-.763.127-1.463.381-2.036.255-.636.573-1.145 1.019-1.59.382-.446.89-.765 1.463-1.02.573-.254 1.146-.317 1.718-.317.637 0 1.273.127 1.782.318.573.254 1.082.573 1.464 1.018zm-.955 6.81c.191-.446.382-.892.51-1.4.127-.51.19-1.146.19-1.783a8.05 8.05 0 00-.19-1.782c-.128-.572-.319-1.018-.573-1.4-.255-.381-.573-.7-.955-.89-.318-.191-.763-.319-1.273-.319-.509 0-.954.128-1.336.382a3.41 3.41 0 00-.954.955c-.191.445-.382.89-.51 1.4-.063.572-.127 1.082-.127 1.654 0 .7.064 1.273.191 1.782.064.51.255.955.51 1.4.254.382.572.7.954.891.318.255.763.382 1.272.382.51 0 .955-.127 1.337-.382.382-.19.7-.509.954-.89zm11.455 1.59h-7.955v-.445c.128 0 .319-.064.51-.064.19 0 .318-.064.381-.064.128-.063.255-.127.319-.254.063-.127.063-.255.063-.446v-6.872c0-.128 0-.255-.064-.382-.063-.128-.19-.191-.318-.255a3.094 3.094 0 00-.445-.19c-.127-.064-.318-.064-.446-.064v-.51h3.946v.51c-.127 0-.255 0-.446.063-.19 0-.318.064-.445.064-.127.064-.19.19-.255.318-.063.127-.063.255-.063.382v6.936c0 .128.063.319.19.51.064.127.319.19.637.19h.636c.191.064.51.064.764.064.255 0 .51 0 .764-.064h.827c.19 0 .382-.063.445-.127a.92.92 0 00.128-.445v-7c0-.128-.064-.255-.128-.382 0-.128-.127-.191-.254-.255a3.089 3.089 0 00-.446-.19c-.19-.064-.318-.064-.445-.064v-.51h3.945v.51c-.127 0-.254 0-.445.063-.19 0-.318.064-.445.064a.767.767 0 00-.319.318c0 .127-.063.255-.063.382v7c0 .255.063.445.19.51.128.126.319.19.637.19h.573v2.8h-.51a8.047 8.047 0 01-.19-.636c-.064-.191-.191-.446-.319-.7-.19-.255-.318-.446-.445-.637-.127-.19-.318-.254-.509-.318zm11.2-2.8l-.191 2.8h-7.89v-.445c.126 0 .317-.064.508-.064.255-.064.382-.064.446-.127.127-.064.254-.128.318-.255.064-.063.064-.254.064-.382v-6.872c0-.128 0-.255-.064-.382-.064-.128-.127-.191-.318-.255-.128-.063-.255-.127-.509-.19-.191-.064-.319-.064-.446-.064v-.51h7.382v2.291h-.509a5.982 5.982 0 00-.573-1.081c-.318-.382-.573-.573-.891-.573-.127-.064-.254-.064-.445-.064H102.645v3.755h1.082c.318 0 .573 0 .7-.064.191-.063.318-.19.445-.318.064-.127.191-.318.255-.573.064-.19.127-.381.127-.572h.509v3.69h-.509c0-.19-.063-.445-.127-.636a1.217 1.217 0 00-.255-.509.988.988 0 00-.509-.382c-.127-.063-.381-.063-.636-.063h-1.082v2.863c0 .255 0 .51.064.7 0 .128.063.255.191.318a.722.722 0 00.509.191c.191 0 .445.064.827.064h.573c.254 0 .445-.064.636-.064s.382-.063.509-.063c.191-.064.318-.128.382-.191.255-.255.446-.573.7-1.018.191-.446.318-.764.382-.955h.509zm10.882 2.8H114.8v-.445c.127 0 .318-.064.509-.064s.318-.064.382-.064c.127-.063.254-.127.318-.254.063-.127.063-.255.063-.446v-3.372h-4.454v3.309c0 .19 0 .318.064.382.063.127.19.19.318.318.063 0 .254.063.445.127.191 0 .318.064.446.064v.445h-3.946v-.445c.064 0 .255-.064.446-.064s.318-.064.381-.064c.191-.063.255-.127.319-.254.063-.127.127-.255.127-.446v-6.872c0-.128-.064-.255-.127-.382-.064-.128-.128-.191-.319-.255-.063-.063-.254-.127-.381-.19-.191-.064-.319-.064-.446-.064v-.51h3.946v.51c-.128 0-.255 0-.446.063-.191 0-.318.064-.445.064a.758.758 0 00-.318.318c-.064.127-.064.255-.064.382v2.99h4.454v-2.926c0-.128 0-.255-.063-.382-.064-.128-.191-.191-.318-.255-.128-.063-.255-.127-.446-.19-.127-.064-.318-.064-.445-.064v-.51h4.009v.51c-.127 0-.318 0-.509.063-.128 0-.318.064-.382.064a.764.764 0 00-.318.318c-.064.127-.064.255-.064.382v6.873c0 .19 0 .318.064.382.063.127.191.19.318.318.064 0 .191.063.382.127.254 0 .382.064.509.064v.445zm9.036-8.4c.382.446.764.955.955 1.591.254.636.382 1.336.382 2.036 0 .764-.128 1.464-.382 2.1-.255.637-.573 1.146-1.018 1.591a3.448 3.448 0 01-1.4.955 4.272 4.272 0 01-1.782.382c-.7 0-1.273-.128-1.846-.382a4.661 4.661 0 01-1.463-1.018 5.57 5.57 0 01-.955-1.591 6.826 6.826 0 01-.318-2.037c0-.763.127-1.463.318-2.036.255-.636.636-1.145 1.018-1.59.446-.446.955-.765 1.464-1.02.573-.254 1.145-.317 1.782-.317.636 0 1.209.127 1.782.318a4.661 4.661 0 011.463 1.018zm-1.018 6.81c.255-.446.445-.892.573-1.4.063-.51.127-1.146.127-1.783 0-.636-.064-1.209-.191-1.782a5.888 5.888 0 00-.509-1.4c-.255-.381-.573-.7-.955-.89a2.892 2.892 0 00-1.272-.319c-.573 0-1.018.128-1.4.382-.382.255-.637.573-.891.955-.255.445-.382.89-.509 1.4a7.295 7.295 0 00-.191 1.654c0 .7.063 1.273.191 1.782.127.51.318.955.572 1.4.255.382.51.7.891.891.382.255.828.382 1.337.382.445 0 .891-.127 1.272-.382.382-.19.7-.509.955-.89zm9.8-3.374v-3.181c0-.128 0-.255-.064-.382-.063-.128-.127-.191-.318-.255a3.066 3.066 0 00-.445-.19c-.128-.064-.318-.064-.446-.064v-.51h4.009v.51c-.127 0-.318 0-.509.063-.127 0-.318.064-.382.064a.77.77 0 00-.318.318c-.063.127-.063.255-.063.382v6.873c0 .19 0 .318.063.382.064.127.191.19.318.318.064 0 .191.063.382.127.255 0 .382.064.509.064v.445h-4.009v-.445c.128 0 .318-.064.509-.064s.319-.064.382-.064c.127-.063.255-.127.318-.254.064-.127.064-.255.064-.446V23.07c-.382.191-.827.382-1.273.51-.445.19-.891.254-1.4.254-.572 0-1.082-.064-1.4-.191-.382-.127-.7-.318-.891-.573-.191-.19-.318-.445-.381-.764-.064-.318-.064-.636-.064-1.018v-1.972c0-.128-.064-.255-.127-.382a.5.5 0 00-.255-.255c-.127-.063-.318-.127-.445-.19-.191-.064-.319-.064-.446-.064v-.51h3.946v.51c-.128 0-.319 0-.446.063-.191 0-.318.064-.445.064a.758.758 0 00-.318.318c0 .127-.064.255-.064.382v1.718c0 .255 0 .446.064.7 0 .191.063.382.19.636.128.191.319.319.51.446.254.127.636.19 1.018.19.318 0 .7 0 1.145-.126.446-.064.764-.191 1.082-.319zM150.563 27.46h-3.945v-.445c.064 0 .254-.064.445-.064s.319-.064.446-.064a.494.494 0 00.254-.254c.064-.127.128-.255.128-.446v-3.372h-4.519v3.309c0 .19.064.318.128.382 0 .127.127.19.254.318.128 0 .255.063.446.127.191 0 .318.064.445.064v.445H140.7v-.445c.127 0 .254-.064.445-.064s.382-.064.446-.064a.494.494 0 00.254-.254.916.916 0 00.127-.446v-6.872c0-.128-.063-.255-.127-.382 0-.128-.127-.191-.254-.255-.128-.063-.255-.127-.446-.19-.191-.064-.318-.064-.445-.064v-.51h3.945v.51c-.127 0-.254 0-.445.063-.191 0-.318.064-.446.064-.127.064-.254.19-.254.318-.064.127-.128.255-.128.382v2.99h4.519v-2.926c0-.128-.064-.255-.128-.382a.494.494 0 00-.254-.255c-.127-.063-.318-.127-.446-.19-.191-.064-.318-.064-.445-.064v-.51h3.945v.51c-.127 0-.254 0-.445.063-.191 0-.318.064-.446.064a.77.77 0 00-.318.318c-.063.127-.063.255-.063.382v6.873c0 .19 0 .318.063.382.064.127.191.19.318.318.064 0 .255.063.446.127.191 0 .318.064.445.064v.445zm9.037-8.4c.445.446.763.955 1.018 1.591.191.636.318 1.336.318 2.036 0 .764-.127 1.464-.382 2.1-.191.637-.572 1.146-.954 1.591a4.153 4.153 0 01-1.464.955 4.27 4.27 0 01-1.782.382 4.566 4.566 0 01-3.309-1.4 5.545 5.545 0 01-.954-1.591 6.827 6.827 0 01-.319-2.037c0-.763.128-1.463.382-2.036a5.57 5.57 0 01.955-1.59c.445-.446.954-.765 1.527-1.02.509-.254 1.082-.317 1.718-.317.637 0 1.209.127 1.782.318.573.254 1.082.573 1.464 1.018zm-1.018 6.81a5.41 5.41 0 00.572-1.4c.128-.51.191-1.146.191-1.783 0-.636-.063-1.209-.191-1.782-.127-.572-.318-1.018-.572-1.4-.255-.381-.573-.7-.955-.89-.382-.191-.764-.319-1.273-.319-.509 0-1.018.128-1.336.382-.382.255-.7.573-.955.955-.191.445-.381.89-.509 1.4-.127.572-.127 1.082-.127 1.654 0 .7 0 1.273.127 1.782.128.51.318.955.573 1.4.255.382.573.7.891.891.382.255.827.382 1.336.382.509 0 .891-.127 1.273-.382.445-.19.7-.509.955-.89zm13.49 1.59h-3.945v-.445c.064 0 .255-.064.445-.064.191 0 .382-.064.446-.064.127-.063.254-.127.318-.254 0-.127.064-.255.064-.446V20.27l-4.582 5.727v.191c0 .128 0 .255.064.382.063.064.127.127.318.255.063 0 .191.063.382.127.254 0 .381.064.509.064v.445h-3.946v-.445c.127 0 .255-.064.446-.064.254 0 .381-.064.445-.064.127-.063.255-.127.318-.254.064-.127.064-.255.064-.446v-6.872c0-.128 0-.255-.064-.382-.063-.128-.191-.191-.318-.255a3.076 3.076 0 00-.445-.19c-.191-.064-.319-.064-.446-.064v-.51h3.946v.51c-.128 0-.255 0-.446.063-.191 0-.318.064-.445.064a.758.758 0 00-.318.318c0 .127-.064.255-.064.382v5.79l4.582-5.726c0-.191 0-.319-.064-.382-.064-.128-.127-.191-.318-.255a3.093 3.093 0 00-.446-.19c-.19-.064-.381-.064-.445-.064v-.51h3.945v.51c-.127 0-.254 0-.445.063-.191 0-.318.064-.445.064a.766.766 0 00-.319.318c-.063.127-.063.255-.063.382v6.873c0 .19 0 .318.063.382.064.127.191.19.319.318.063 0 .254.063.445.127.191 0 .318.064.445.064v.445zm-3.436-11.073l-.191-.381c-.063-.191-.063-.319-.063-.446 0-.19.063-.382.254-.509a.92.92 0 01.446-.127c.19 0 .381.063.509.19.127.191.191.319.191.573 0 .128-.064.319-.191.51a.991.991 0 01-.382.509c-.191.19-.446.318-.764.381-.318.128-.763.191-1.273.191-.445 0-.89-.063-1.209-.19-.318-.064-.572-.192-.763-.383-.191-.127-.382-.318-.446-.509-.063-.19-.127-.318-.127-.509 0-.254.064-.381.191-.572a.576.576 0 01.445-.191c.191 0 .382.063.509.127.128.127.255.255.255.51 0 .126-.064.317-.127.445-.064.127-.064.254-.128.381.191.191.382.319.637.319.254.063.509.127.763.127.255 0 .446-.064.764-.127.255-.064.509-.128.7-.319zM84.446 41.97v-7.827h-2.674c0 1.59-.19 3.118-.572 4.645-.382 1.528-.891 2.737-1.528 3.755h4.137a.985.985 0 00.509-.127c.064-.128.127-.255.127-.446zm-4.519 1.146c-.19 0-.382.127-.573.318a4.49 4.49 0 00-.445.572c-.128.255-.191.51-.318.764-.064.255-.191.446-.191.573h-.51v-2.8h.891c.573-.827 1.082-1.91 1.528-3.31.445-1.4.636-2.672.636-3.754 0-.382 0-.636-.063-.827-.064-.127-.191-.255-.382-.382-.064-.063-.255-.063-.51-.127-.254-.064-.445-.064-.508-.064v-.509h7.636v.51c-.127 0-.255 0-.446.063-.19 0-.318.063-.381.063-.191.064-.255.128-.319.255-.063.127-.063.318-.063.446v7c0 .254.063.445.127.509.127.127.382.127.636.127h.573v2.8h-.509l-.19-.573c-.065-.19-.192-.445-.319-.764a2.287 2.287 0 00-.446-.636c-.127-.127-.318-.254-.509-.254h-5.345zm16.545-2.8l-.127 2.8h-7.954v-.51h.572c.191-.063.319-.063.446-.127a.497.497 0 00.254-.254c.064-.128.128-.255.128-.382v-6.873c0-.127-.064-.254-.128-.382 0-.127-.127-.19-.254-.318-.128-.063-.318-.063-.51-.127-.19-.064-.381-.064-.508-.064v-.509h7.381v2.291h-.509c-.063-.318-.254-.7-.572-1.082-.319-.382-.573-.572-.828-.636H91.191v3.754h1.081c.319 0 .573 0 .764-.063.127-.064.255-.191.382-.382.127-.127.19-.255.254-.51.064-.19.128-.38.128-.572h.509v3.691h-.51c0-.19-.063-.445-.127-.636-.063-.255-.127-.446-.254-.573-.127-.127-.255-.255-.446-.318-.19-.064-.445-.064-.7-.064h-1.081v2.864c0 .254 0 .509.063.636.064.191.127.318.255.382.127.127.254.127.445.19h2.037c.19 0 .381-.063.572-.126.191 0 .319-.064.382-.191.191-.191.382-.51.637-.955a5.39 5.39 0 00.445-.954h.445zm9.291 2.8h-4.009v-.51h.509c.191-.063.319-.063.382-.127.127-.063.255-.127.318-.254.064-.064.064-.255.064-.382v-3.055h-.636c-.509 0-.891.128-1.146.319-.318.19-.636.7-.891 1.4-.254.445-.382.827-.573 1.209-.127.381-.318.827-.509 1.4h-2.609v-.51h.319c.127 0 .254-.063.381-.063.191-.064.319-.127.446-.191a2.22 2.22 0 00.382-.573c.127-.254.254-.572.381-.89.191-.319.319-.573.382-.764.191-.446.446-.828.7-1.019.255-.254.637-.445 1.018-.572v-.064c-.318-.127-.572-.19-.89-.318-.255-.127-.51-.255-.7-.446-.255-.19-.446-.445-.51-.7-.127-.254-.19-.572-.19-.954s.063-.764.254-1.082c.127-.318.382-.573.636-.764.255-.19.573-.381.955-.445.382-.127.764-.19 1.145-.19h4.391v.508c-.127 0-.254 0-.445.064-.191 0-.382.063-.446.063-.19.064-.254.191-.318.319-.063.127-.063.254-.063.382v6.936c0 .127 0 .254.063.382.064.127.128.19.318.254.064.064.191.064.382.127h.509v.51zm-2.736-4.9v-4.073h-1.145c-.573 0-1.019.19-1.4.573-.319.318-.51.827-.51 1.4 0 .7.191 1.209.573 1.59.446.319.955.51 1.591.51h.891zm11.773-2.037h-.446l-.191-.572a5.6 5.6 0 00-.381-.637c-.128-.19-.255-.382-.446-.573-.127-.127-.318-.19-.445-.254h-.509c-.255-.064-.446-.064-.637-.064h-.382v7.637c0 .19.064.318.128.445.063.127.127.191.318.255.063.063.254.063.509.127.254.063.445.063.573.063v.51h-4.455v-.51h.573c.254-.063.382-.063.509-.127.127-.063.254-.127.318-.254a.916.916 0 00.127-.446v-7.7h-.891c-.254.064-.445.064-.636.064-.127 0-.318.127-.445.254-.191.191-.319.382-.446.573-.127.191-.254.382-.382.636-.063.255-.127.382-.191.573h-.445V33.57h8.273v2.61zm8.782 4.137l-.191 2.8H115.5v-.51h.572c.191-.063.319-.063.382-.127.191-.063.255-.127.318-.254.064-.128.128-.255.128-.382v-6.873c0-.127-.064-.254-.128-.382 0-.127-.127-.19-.318-.318-.063-.063-.254-.063-.445-.127s-.382-.064-.509-.064v-.509h7.382v2.291h-.51c-.063-.318-.254-.7-.572-1.082-.318-.382-.573-.572-.828-.636H118.3v3.754h1.082c.318 0 .572 0 .763-.063.127-.064.255-.191.382-.382.127-.127.191-.255.255-.51.063-.19.127-.38.127-.572h.509v3.691h-.509c0-.19-.064-.445-.127-.636-.064-.255-.128-.446-.255-.573-.127-.127-.255-.255-.445-.318-.191-.064-.446-.064-.7-.064H118.3v2.864c0 .254 0 .509.063.636.064.191.128.318.255.382.064.127.254.127.445.19h2.037c.191 0 .382-.063.572-.126.191 0 .319-.064.382-.191.191-.191.382-.51.637-.955.254-.445.381-.764.445-.954h.446zm3.5-6.046c-.128-.063-.319-.063-.51-.127-.254-.064-.445-.064-.509-.064v-.509h7.573v.51c-.127 0-.254 0-.445.063-.191 0-.319.063-.382.063-.191.064-.318.128-.318.255a1.174 1.174 0 00-.128.446v6.872c0 .128.064.255.128.382 0 .127.127.191.318.318.063 0 .191.064.382.064.191.063.381.063.445.063v.51h-3.945v-.51h.445c.191 0 .382-.063.446-.063.127-.064.19-.191.254-.255a.915.915 0 00.127-.445v-7.7h-2.545c0 1.527-.127 2.927-.318 4.073-.255 1.209-.509 2.163-.828 2.863-.318.764-.7 1.273-1.081 1.655-.446.318-.828.509-1.209.509-.382 0-.7-.064-.891-.255-.191-.19-.319-.445-.319-.7 0-.19.064-.381.191-.572.128-.191.319-.255.573-.255.191 0 .318 0 .446.064.127.063.254.19.318.254.063.064.127.191.191.255a.86.86 0 00.191.254c.127-.127.318-.381.572-.7.191-.382.382-.827.573-1.463.255-.573.382-1.21.509-1.973.191-.7.255-1.527.255-2.418 0-.446-.064-.764-.128-.955-.063-.254-.191-.382-.381-.509zm14 5.918c0-.572-.191-1.081-.573-1.463-.446-.318-.955-.51-1.655-.51h-1.145v3.5c0 .319.063.51.254.637.191.19.509.255 1.019.255.7 0 1.209-.255 1.59-.637.382-.382.51-1.018.51-1.782zm1.718.128c0 .445-.128.89-.318 1.272a3.356 3.356 0 01-.764.891c-.318.191-.636.382-1.018.446-.382.127-.764.19-1.209.19h-4.519v-.508h.51c.19-.064.318-.064.381-.128.191-.063.255-.127.319-.254.063-.128.127-.255.127-.382v-6.873c0-.127-.064-.254-.127-.382a.5.5 0 00-.255-.254 3.126 3.126 0 00-.445-.191c-.191-.064-.382-.064-.446-.064v-.509h4.009v.51c-.127 0-.318 0-.509.063-.191 0-.318.063-.445.063a.767.767 0 00-.319.319c-.063.127-.063.254-.063.382v2.736H138.982c.509 0 1.018 0 1.463.127.446.064.891.255 1.209.446.382.19.637.509.828.827.19.382.318.764.318 1.273zm10.882 2.8h-3.946v-.51h.446c.19 0 .381-.063.445-.063.127-.064.191-.191.255-.255.063-.127.127-.254.127-.445v-3.373h-4.455v3.31c0 .127 0 .254.064.381s.127.191.318.318c.064 0 .191.064.382.064.191.063.382.063.509.063v.51h-4.009v-.51h.445c.255 0 .382-.063.446-.063.127-.064.254-.191.318-.255.064-.127.064-.254.064-.445v-6.873c0-.127 0-.254-.064-.382a.77.77 0 00-.318-.318c-.127-.063-.255-.063-.446-.127s-.318-.064-.445-.064v-.509h4.009v.51c-.127 0-.318 0-.509.063-.191 0-.318.063-.382.063-.191.064-.254.128-.318.255s-.064.318-.064.446v2.927h4.455v-2.864c0-.127-.064-.254-.064-.382a.764.764 0 00-.318-.318c-.127-.063-.255-.063-.445-.127-.191-.064-.319-.064-.446-.064v-.509h3.946v.51c-.128 0-.255 0-.446.063-.191 0-.318.063-.382.063-.191.064-.318.128-.318.255a1.172 1.172 0 00-.127.446v6.872c0 .128.063.255.127.382 0 .127.127.191.318.318.064 0 .191.064.382.064.191.063.382.063.446.063v.51zm9.036-8.4c.445.445.764.954 1.018 1.59.255.637.318 1.273.318 2.037s-.063 1.464-.318 2.1c-.254.573-.573 1.145-1.018 1.59-.446.383-.891.764-1.464.955a4.266 4.266 0 01-1.782.382c-.636 0-1.272-.127-1.781-.382-.573-.254-1.082-.572-1.464-1.018-.445-.445-.764-1.018-.955-1.59a5.523 5.523 0 01-.381-2.037c0-.764.127-1.464.381-2.036.255-.637.573-1.146 1.019-1.591.381-.446.891-.764 1.463-1.019a4.204 4.204 0 011.718-.381c.637 0 1.273.127 1.782.381.573.255 1.082.573 1.464 1.019zm-.955 6.745c.255-.382.382-.827.509-1.4.128-.509.191-1.082.191-1.718 0-.636-.063-1.273-.191-1.782-.127-.573-.318-1.018-.572-1.4-.255-.382-.573-.7-.955-.89-.318-.255-.763-.319-1.273-.319-.509 0-.954.127-1.336.382-.382.19-.7.573-.954.954a7.208 7.208 0 00-.51 1.4c-.063.51-.127 1.082-.127 1.655 0 .636.064 1.273.191 1.782.064.509.255.954.509 1.4.255.382.573.7.955.89.318.255.763.319 1.272.319.51 0 .955-.064 1.337-.318.382-.191.7-.51.954-.955zm7.7 1.91a3.455 3.455 0 01-1.591-.383 3.447 3.447 0 01-1.4-.954c-.381-.382-.7-.891-.954-1.528a5.267 5.267 0 01-.382-2.036c0-.764.127-1.464.382-2.1.191-.636.573-1.145.954-1.59.382-.446.891-.828 1.464-1.019.509-.255 1.146-.382 1.782-.382.445 0 .891.064 1.273.191.381.064.7.255 1.081.446l.255-.446h.573v3.436h-.509c-.064-.381-.191-.7-.319-1.081-.19-.382-.318-.764-.509-1.018-.254-.319-.509-.51-.763-.7-.318-.191-.637-.255-1.018-.255-.446 0-.828.064-1.21.318-.381.191-.7.446-.954.827-.255.382-.509.828-.636 1.4a8.181 8.181 0 00-.191 1.846c0 .636.063 1.209.191 1.718.19.51.381.955.7 1.336.254.382.572.637 1.018.891.382.191.827.319 1.272.319.382 0 .7-.064 1.019-.191.318-.128.572-.255.763-.446.255-.19.446-.445.573-.7.191-.254.318-.509.445-.764l.51.191c-.382.955-.891 1.655-1.528 2.037-.636.445-1.4.636-2.291.636zm12.409-7.192h-.445c-.064-.19-.127-.382-.255-.572-.063-.255-.19-.446-.318-.637-.127-.19-.318-.382-.445-.573a3.607 3.607 0 00-.446-.254h-.572c-.191-.064-.382-.064-.573-.064h-.382v7.637c0 .19 0 .318.064.445.063.127.191.191.382.255.063.063.254.063.509.127.254.063.445.063.572.063v.51h-4.518v-.51h.573c.254-.063.445-.063.573-.127.127-.063.254-.127.318-.254.063-.128.063-.255.063-.446v-7.7h-.89c-.191.064-.382.064-.573.064-.127 0-.318.127-.446.254-.191.191-.318.382-.445.573-.127.191-.255.382-.382.636-.127.255-.191.382-.191.573h-.509V33.57h8.336v2.61zm10.691 6.937h-3.945v-.51h.445c.191 0 .382-.063.446-.063.127-.064.254-.191.318-.255.064-.127.064-.254.064-.445v-5.918l-4.582 5.727v.127c0 .191 0 .318.063.382.064.127.128.191.319.318.063 0 .191.064.445.064.191.063.318.063.446.063v.51h-3.946v-.51h.509c.191 0 .318-.063.382-.063.127-.064.255-.191.318-.255.064-.127.064-.254.064-.445v-6.873c0-.127 0-.254-.064-.382a.764.764 0 00-.318-.318c-.127-.063-.255-.063-.445-.127-.128-.064-.319-.064-.446-.064v-.509h3.946v.51c-.128 0-.255 0-.446.063-.191 0-.318.063-.445.063-.128.064-.255.128-.319.255 0 .127-.063.318-.063.446v5.79l4.645-5.727a.916.916 0 00-.127-.445c-.064-.064-.127-.191-.318-.255-.064 0-.255-.063-.446-.127s-.318-.064-.445-.064v-.509h3.945v.51c-.127 0-.254 0-.445.063-.191 0-.318.063-.446.063-.127.064-.254.128-.318.255 0 .127-.063.318-.063.446v6.872c0 .128.063.255.063.382.064.127.191.191.318.318.064 0 .255.064.446.064.191.063.318.063.445.063v.51z" fill="#FEFEFE"/></svg>